<?xml version="1.0" encoding="utf-8"?>
<!-- Generator: Adobe Illustrator 16.0.0, SVG Export Plug-In . SVG Version: 6.00 Build 0)  -->
<!DOCTYPE svg PUBLIC "-//W3C//DTD SVG 1.1 Tiny//EN" "http://www.w3.org/Graphics/SVG/1.1/DTD/svg11-tiny.dtd">
<svg version="1.1" baseProfile="tiny" id="Ebene_1" xmlns="http://www.w3.org/2000/svg" xmlns:xlink="http://www.w3.org/1999/xlink"
	 x="0px" y="0px" width="51.023px" height="51.023px" viewBox="0.06 255.06 51.023 51.023" xml:space="preserve">
<path fill="#646464" d="M42.086,269.349c-0.591,0.662-1.57,1.507-2.975,2.791c-1.489,1.486-3.595,1.486-5.083,0
	c-1.489-1.486-1.489-3.589,0-5.075c1.371-1.368,2.845-2.991,2.821-2.998c-3.984-1.835-8.855-1.126-12.139,2.153
	c-2.992,2.987-3.846,7.289-2.587,11.04L9.464,289.9c-1.872,1.869-1.872,4.897,0,6.767c1.871,1.869,4.904,1.869,6.776,0l12.66-12.641
	c3.756,1.258,8.065,0.405,11.058-2.582C43.238,278.167,43.917,273.324,42.086,269.349z M38.264,279.751
	c-2.683,2.678-6.715,3.126-9.891,1.416l-13.827,13.808c-0.936,0.934-2.452,0.934-3.389,0c-0.936-0.934-0.936-2.449,0-3.384
	l13.827-13.808c-1.71-3.171-1.262-7.196,1.419-9.873c1.608-1.605,3.706-2.369,5.813-2.395c-2.208,2.344-2.179,6.024,0.116,8.314
	c2.293,2.29,5.979,2.321,8.327,0.116C40.634,276.052,39.871,278.146,38.264,279.751z"/>
</svg>
