<?xml version="1.0" encoding="utf-8"?>
<!-- Generator: Adobe Illustrator 16.0.0, SVG Export Plug-In . SVG Version: 6.00 Build 0)  -->
<!DOCTYPE svg PUBLIC "-//W3C//DTD SVG 1.1 Tiny//EN" "http://www.w3.org/Graphics/SVG/1.1/DTD/svg11-tiny.dtd">
<svg version="1.1" baseProfile="tiny" id="Ebene_1" xmlns="http://www.w3.org/2000/svg" xmlns:xlink="http://www.w3.org/1999/xlink"
	 x="0px" y="0px" width="51.023px" height="51.023px" viewBox="0.06 255.06 51.023 51.023" xml:space="preserve">
<g>
	<path fill="#646464" d="M41.581,283.441c-0.061-3.405-2.973-5.467-6.096-6.087c0.024-0.513,0.046-1.024,0.078-1.538
		c0.017-0.304-0.08-0.536-0.238-0.704c-0.571-1.398-2.221-2.263-3.592-2.774c-3.182-1.188-6.744-1.344-10.115-1.266
		c-0.147,0.004-0.276,0.033-0.395,0.074c-2.85-0.09-5.842,0.023-8.51,1.012c-1.535,0.569-3.291,1.732-3.142,3.541
		c0.024,0.293,0.098,0.565,0.202,0.82c0.42,6.439-0.019,12.881-0.146,19.322c-0.069,0.187-0.07,0.408,0.035,0.66
		c2.634,6.254,20.695,5.702,25.25,0.894c0.178-0.188,0.271-0.396,0.293-0.599c0.152-0.168,0.252-0.393,0.246-0.684
		c-0.033-2-0.071-4-0.102-5.999C38.824,289.466,41.646,287.057,41.581,283.441z M12.223,275.068c0.484-0.492,1.255-0.73,1.901-0.934
		c4.688-1.467,10.938-1.223,15.667,0.014c1.042,0.273,2.987,0.869,3.344,1.896c0.053,0.158,0.033,0.218-0.26,0.514
		c-0.484,0.493-1.255,0.731-1.9,0.934c-0.06,0.019-0.121,0.033-0.18,0.052c-5.264-3.003-11.522-3.294-17.055-0.75
		c-0.066,0.031-0.123,0.066-0.176,0.104c-0.737-0.322-1.406-0.753-1.601-1.315C11.91,275.426,11.931,275.365,12.223,275.068z
		 M27.601,278.238c-3.579,0.513-7.499,0.288-10.938-0.442C20.272,276.654,24.11,276.849,27.601,278.238z M11.813,296.014
		c0-0.003,0.001-0.005,0.001-0.009c0.108-5.762,0.478-11.523,0.266-17.283c0.43,0.225,0.87,0.412,1.286,0.567
		c3.182,1.188,6.744,1.344,10.116,1.267c0.147-0.004,0.275-0.033,0.394-0.074c2.851,0.089,5.842-0.023,8.51-1.013
		c0.277-0.103,0.56-0.226,0.838-0.366c-0.195,5.629-0.055,11.26,0.039,16.891C29.95,299.371,13.784,300.542,11.813,296.014z
		 M35.326,287.94c-0.027-2.822-0.017-5.645,0.074-8.467c2.043,0.46,3.791,1.768,3.993,3.968
		C39.619,285.915,37.515,287.378,35.326,287.94z M18.79,266.555c0.018,0.015,0.035,0.022,0.053,0.035
		c0.564,0.781,0.618,1.498-0.256,2.13c-0.451,0.325-0.679,0.859-0.37,1.37c0.261,0.432,0.959,0.686,1.41,0.359
		c1.747-1.264,2.289-3.202,0.92-4.975c-0.027-0.035-0.058-0.065-0.087-0.098c-0.055-0.082-0.119-0.162-0.212-0.238
		c-1.397-1.137-1.269-2.191,0-3.389c0.955-0.9-0.505-2.315-1.458-1.416C16.77,262.24,16.536,264.723,18.79,266.555z M26.212,266.555
		c0.018,0.015,0.036,0.022,0.053,0.035c0.563,0.781,0.619,1.498-0.257,2.13c-0.449,0.325-0.678,0.859-0.369,1.37
		c0.26,0.432,0.959,0.686,1.41,0.359c1.747-1.264,2.289-3.202,0.92-4.975c-0.027-0.035-0.058-0.065-0.088-0.098
		c-0.054-0.082-0.119-0.162-0.211-0.238c-1.396-1.137-1.268-2.191,0-3.389c0.955-0.9-0.505-2.315-1.458-1.416
		C24.193,262.24,23.958,264.723,26.212,266.555z"/>
</g>
</svg>
