<?xml version="1.0" encoding="utf-8"?>
<!-- Generator: Adobe Illustrator 16.0.0, SVG Export Plug-In . SVG Version: 6.00 Build 0)  -->
<!DOCTYPE svg PUBLIC "-//W3C//DTD SVG 1.1 Tiny//EN" "http://www.w3.org/Graphics/SVG/1.1/DTD/svg11-tiny.dtd">
<svg version="1.1" baseProfile="tiny" id="Ebene_1" xmlns="http://www.w3.org/2000/svg" xmlns:xlink="http://www.w3.org/1999/xlink"
	 x="0px" y="0px" width="255.121px" height="255.121px" viewBox="0 0 255.121 255.121" xml:space="preserve">
<g>
	<path fill="#B0101D" d="M183.773,18.045H71.347c-7.587,0-13.755,6.22-13.755,13.867v191.293c0,7.647,6.17,13.868,13.755,13.868
		h112.426c7.583,0,13.754-6.221,13.754-13.868V31.912C197.527,24.265,191.356,18.045,183.773,18.045z M190.633,223.206
		c0,3.815-3.077,6.916-6.861,6.916H71.347c-3.784,0-6.862-3.101-6.862-6.916v-20.824h126.149L190.633,223.206L190.633,223.206z
		 M190.633,197.748H64.485V52.9h126.149L190.633,197.748L190.633,197.748z M190.633,48.265H64.485V31.912
		c0-3.815,3.077-6.918,6.862-6.918h112.426c3.784,0,6.861,3.104,6.861,6.918L190.633,48.265L190.633,48.265z M127.559,228.208
		c6.22,0,11.286-5.104,11.286-11.378c0-6.273-5.062-11.378-11.286-11.378c-6.223,0-11.288,5.104-11.288,11.378
		C116.271,223.105,121.335,228.208,127.559,228.208z M127.559,210.084c3.691,0,6.689,3.025,6.689,6.745s-3,6.747-6.689,6.747
		c-3.689,0-6.69-3.027-6.69-6.747S123.87,210.084,127.559,210.084z M143.18,35.483h-31.242c-1.272,0-2.298,1.039-2.298,2.316
		c0,1.28,1.027,2.317,2.298,2.317h31.242c1.271,0,2.298-1.037,2.298-2.317C145.479,36.521,144.451,35.483,143.18,35.483z
		 M103.668,35.483c-0.606,0-1.193,0.245-1.628,0.675c-0.428,0.432-0.671,1.03-0.671,1.64c0,0.613,0.244,1.206,0.671,1.641
		c0.428,0.431,1.022,0.676,1.628,0.676c0.599,0,1.194-0.245,1.622-0.676c0.428-0.435,0.675-1.029,0.675-1.641
		c0-0.61-0.246-1.204-0.675-1.64C104.862,35.728,104.269,35.483,103.668,35.483z"/>
</g>
</svg>
