<?xml version="1.0" encoding="utf-8"?>
<!-- Generator: Adobe Illustrator 16.0.0, SVG Export Plug-In . SVG Version: 6.00 Build 0)  -->
<!DOCTYPE svg PUBLIC "-//W3C//DTD SVG 1.1 Tiny//EN" "http://www.w3.org/Graphics/SVG/1.1/DTD/svg11-tiny.dtd">
<svg version="1.1" baseProfile="tiny" id="Ebene_1" xmlns="http://www.w3.org/2000/svg" xmlns:xlink="http://www.w3.org/1999/xlink"
	 x="0px" y="0px" width="255.12px" height="255.12px" viewBox="0 0 255.12 255.12" xml:space="preserve">
<g>
	<path fill="#B0101D" d="M211.898,60.976c-0.475-0.045-47.798-4.888-80.758-28.748c-2.135-1.547-5.026-1.547-7.161,0
		C91.014,56.088,43.696,60.93,43.226,60.976c-3.123,0.3-5.507,2.918-5.507,6.044c0,1.305,0.124,32.362,10.733,67.227
		c6.288,20.672,14.983,38.354,25.847,52.562c13.794,18.047,31.09,30.486,51.404,36.973c0.605,0.194,1.231,0.293,1.858,0.293
		c0.628,0,1.256-0.099,1.859-0.293c20.312-6.483,37.609-18.926,51.404-36.973c10.862-14.208,19.558-31.891,25.847-52.562
		c10.609-34.865,10.729-65.922,10.729-67.227C217.399,63.895,215.018,61.279,211.898,60.976z M195.01,130.72
		c-13.024,42.805-35.712,70.003-67.45,80.883c-31.666-10.854-54.325-37.962-67.365-80.604c-7.644-24.989-9.609-48.46-10.117-58.652
		c13.649-1.984,49-8.703,77.481-27.8c28.479,19.099,63.836,25.816,77.485,27.801C204.544,82.487,202.598,105.782,195.01,130.72z
		 M106.231,127.673c-2.558-2.18-6.404-1.878-8.589,0.669c-2.187,2.548-1.888,6.382,0.67,8.562l22.032,18.777
		c1.108,0.945,2.515,1.458,3.961,1.458c0.215,0,0.429-0.013,0.644-0.032c1.667-0.179,3.185-1.033,4.2-2.358l37.868-49.507
		c2.037-2.666,1.522-6.476-1.154-8.51c-2.674-2.035-6.496-1.518-8.537,1.146l-33.958,44.4L106.231,127.673z"/>
</g>
</svg>
