<?xml version="1.0" encoding="utf-8"?>
<!-- Generator: Adobe Illustrator 16.0.0, SVG Export Plug-In . SVG Version: 6.00 Build 0)  -->
<!DOCTYPE svg PUBLIC "-//W3C//DTD SVG 1.1 Tiny//EN" "http://www.w3.org/Graphics/SVG/1.1/DTD/svg11-tiny.dtd">
<svg version="1.1" baseProfile="tiny" id="Ebene_1" xmlns="http://www.w3.org/2000/svg" xmlns:xlink="http://www.w3.org/1999/xlink"
	 x="0px" y="0px" width="29.622px" height="19.002px" viewBox="0 0 29.622 19.002" xml:space="preserve">
<path fill="#A9121C" d="M28.323,8.175H4.054l5.791-5.912c0.507-0.518,0.507-1.357,0-1.875s-1.33-0.518-1.836,0L0,8.563
	c-0.507,0.518-0.507,1.357,0,1.875l8.008,8.175c0.253,0.259,0.586,0.389,0.918,0.389c0.333,0,0.665-0.13,0.918-0.389
	c0.507-0.518,0.507-1.356,0-1.874l-5.791-5.913h24.269c0.717,0,1.299-0.593,1.299-1.325S29.04,8.175,28.323,8.175z"/>
</svg>
