<?xml version="1.0" encoding="utf-8"?>
<!-- Generator: Adobe Illustrator 16.0.0, SVG Export Plug-In . SVG Version: 6.00 Build 0)  -->
<!DOCTYPE svg PUBLIC "-//W3C//DTD SVG 1.1 Tiny//EN" "http://www.w3.org/Graphics/SVG/1.1/DTD/svg11-tiny.dtd">
<svg version="1.1" baseProfile="tiny" id="Ebene_1" xmlns="http://www.w3.org/2000/svg" xmlns:xlink="http://www.w3.org/1999/xlink"
	 x="0px" y="0px" width="65.197px" height="65.197px" viewBox="0 0 65.197 65.197" xml:space="preserve">
<path fill="#FFFFFF" d="M50.761,22.236l-4.13-4.31c-0.488-0.51-1.282-0.51-1.771,0L27.654,35.881l-7.318-7.636
	c-0.489-0.511-1.281-0.511-1.77,0l-4.13,4.309c-0.489,0.51-0.489,1.338,0,1.848l12.333,12.87c0.244,0.255,0.564,0.382,0.884,0.382
	c0.321,0,0.641-0.127,0.886-0.382l22.221-23.188c0.235-0.244,0.366-0.577,0.366-0.923C51.127,22.813,50.996,22.482,50.761,22.236z"
	/>
</svg>
