<?xml version="1.0" encoding="utf-8"?>
<!-- Generator: Adobe Illustrator 16.0.0, SVG Export Plug-In . SVG Version: 6.00 Build 0)  -->
<!DOCTYPE svg PUBLIC "-//W3C//DTD SVG 1.1 Tiny//EN" "http://www.w3.org/Graphics/SVG/1.1/DTD/svg11-tiny.dtd">
<svg version="1.1" baseProfile="tiny" id="Ebene_1" xmlns="http://www.w3.org/2000/svg" xmlns:xlink="http://www.w3.org/1999/xlink"
	 x="0px" y="0px" width="39.997px" height="39.996px" viewBox="0 0 39.997 39.996" xml:space="preserve">
<path fill="#B0101D" d="M39.997,16.299c0-1.868-1.529-3.396-3.397-3.396h-6.11c-1.868,0-3.396-1.529-3.396-3.396V3.396
	C27.093,1.528,25.565,0,23.697,0H16.3c-1.868,0-3.396,1.528-3.396,3.396v6.111c0,1.868-1.528,3.396-3.396,3.396H3.396
	C1.528,12.903,0,14.431,0,16.299v7.396c0,1.868,1.528,3.396,3.396,3.396h6.111c1.868,0,3.396,1.528,3.396,3.396v6.11
	c0,1.868,1.528,3.396,3.396,3.396h7.397c1.868,0,3.396-1.528,3.396-3.396v-6.11c0-1.868,1.528-3.396,3.396-3.396h6.11
	c1.868,0,3.397-1.528,3.397-3.396V16.299z"/>
</svg>
