<?xml version="1.0" encoding="utf-8"?>
<!-- Generator: Adobe Illustrator 16.0.0, SVG Export Plug-In . SVG Version: 6.00 Build 0)  -->
<!DOCTYPE svg PUBLIC "-//W3C//DTD SVG 1.1 Tiny//EN" "http://www.w3.org/Graphics/SVG/1.1/DTD/svg11-tiny.dtd">
<svg version="1.1" baseProfile="tiny" id="Ebene_1" xmlns="http://www.w3.org/2000/svg" xmlns:xlink="http://www.w3.org/1999/xlink"
	 x="0px" y="0px" width="255.12px" height="255.12px" viewBox="0 0 255.12 255.12" xml:space="preserve">
<g>
	<path fill="#B0101D" d="M127.559,30.559c-53.484,0-97,43.516-97,97c0,53.484,43.516,97,97,97c53.484,0,97-43.516,97-97
		C224.559,74.075,181.043,30.559,127.559,30.559z M127.559,211.793c-46.448,0-84.234-37.786-84.234-84.234
		c0-46.447,37.786-84.235,84.234-84.235c46.445,0,84.234,37.789,84.234,84.235C211.793,174.007,174.004,211.793,127.559,211.793z
		 M133.941,121.832v-36.24c3.612,1.341,6.761,3.802,8.953,7.13c1.94,2.943,5.898,3.759,8.843,1.82
		c2.946-1.938,3.759-5.896,1.818-8.841c-4.586-6.962-11.65-11.69-19.614-13.354V62.206c0-3.527-2.857-6.383-6.382-6.383
		s-6.383,2.856-6.383,6.383v10.121c-14.127,2.944-24.772,15.491-24.772,30.479s10.645,27.536,24.772,30.48v36.239
		c-3.612-1.339-6.764-3.802-8.956-7.127c-1.938-2.946-5.896-3.764-8.839-1.822c-2.946,1.939-3.759,5.898-1.823,8.842
		c4.586,6.961,11.655,11.69,19.618,13.356v10.139c0,3.522,2.858,6.383,6.383,6.383s6.382-2.86,6.382-6.383v-10.119
		c14.127-2.946,24.771-15.492,24.771-30.482C158.713,137.325,148.068,124.776,133.941,121.832z M121.176,120.017
		c-6.997-2.597-12.007-9.321-12.007-17.211c0-7.89,5.01-14.614,12.007-17.211V120.017z M133.941,169.522v-34.422
		c6.997,2.597,12.008,9.321,12.008,17.211C145.949,160.203,140.941,166.926,133.941,169.522z"/>
</g>
</svg>
