<?xml version="1.0" encoding="utf-8"?>
<!-- Generator: Adobe Illustrator 16.0.0, SVG Export Plug-In . SVG Version: 6.00 Build 0)  -->
<!DOCTYPE svg PUBLIC "-//W3C//DTD SVG 1.1 Tiny//EN" "http://www.w3.org/Graphics/SVG/1.1/DTD/svg11-tiny.dtd">
<svg version="1.1" baseProfile="tiny" id="Ebene_1" xmlns="http://www.w3.org/2000/svg" xmlns:xlink="http://www.w3.org/1999/xlink"
	 x="0px" y="0px" width="13px" height="13px" viewBox="0 0 13 13" xml:space="preserve">
<path fill="#B0101D" d="M6.413,0C2.824,0.049-0.047,2.998,0,6.587c0.048,3.588,2.997,6.459,6.586,6.412
	c3.589-0.048,6.46-2.997,6.412-6.586C12.951,2.824,10.002-0.047,6.413,0z M6.394,10.457l-0.036-0.001
	c-0.553-0.017-0.942-0.424-0.927-0.968C5.447,8.952,5.846,8.563,6.38,8.563l0.032,0.001c0.568,0.017,0.954,0.42,0.937,0.98
	C7.334,10.081,6.941,10.457,6.394,10.457z M8.719,5.842c-0.13,0.185-0.415,0.414-0.775,0.694L7.547,6.81
	c-0.218,0.169-0.35,0.329-0.398,0.485C7.109,7.419,7.09,7.451,7.087,7.702L7.086,7.766H5.572l0.004-0.128
	c0.019-0.526,0.032-0.836,0.25-1.092c0.343-0.402,1.098-0.889,1.13-0.91c0.108-0.082,0.199-0.174,0.268-0.273
	c0.158-0.219,0.229-0.392,0.229-0.561c0-0.235-0.07-0.453-0.208-0.647C7.112,3.968,6.86,3.873,6.496,3.873
	c-0.362,0-0.609,0.115-0.757,0.35C5.586,4.465,5.509,4.719,5.509,4.979v0.064H3.947L3.95,4.976C3.991,4.02,4.332,3.331,4.964,2.929
	c0.397-0.256,0.892-0.386,1.469-0.386c0.756,0,1.394,0.184,1.896,0.545c0.509,0.367,0.767,0.917,0.767,1.633
	C9.096,5.123,8.969,5.5,8.719,5.842z"/>
</svg>
