<?xml version="1.0" encoding="utf-8"?>
<!-- Generator: Adobe Illustrator 16.0.0, SVG Export Plug-In . SVG Version: 6.00 Build 0)  -->
<!DOCTYPE svg PUBLIC "-//W3C//DTD SVG 1.1 Tiny//EN" "http://www.w3.org/Graphics/SVG/1.1/DTD/svg11-tiny.dtd">
<svg version="1.1" baseProfile="tiny" id="Ebene_1" xmlns="http://www.w3.org/2000/svg" xmlns:xlink="http://www.w3.org/1999/xlink"
	 x="0px" y="0px" width="255.121px" height="255.121px" viewBox="0 0 255.121 255.121" xml:space="preserve">
<path fill="#B0101D" d="M174.813,22.999c-17.076,0-33.206,6.26-45.813,17.703c-12.606-11.443-28.737-17.703-45.81-17.703
	c-37.828,0-68.605,31.062-68.605,69.24c0,24.137,12.98,52.903,36.55,80.999c21.681,25.847,49.493,47.865,76.308,60.414
	C127.938,233.88,128.472,234,129,234c0.534,0,1.065-0.119,1.562-0.349c26.816-12.549,54.628-34.567,76.31-60.414
	c23.565-28.096,36.544-56.861,36.544-80.999C243.415,54.06,212.64,22.999,174.813,22.999L174.813,22.999z M83.189,30.482
	c16.304,0,31.644,6.4,43.193,18.021c1.448,1.454,3.79,1.454,5.235,0c11.551-11.62,26.892-18.021,43.195-18.021
	c33.741,0,61.189,27.705,61.189,61.756c0,8.287-1.701,17.215-4.975,26.534h-46.672c-1.738,0-3.245,1.217-3.622,2.927l-4.391,19.954
	l-12.105-51.921c-0.392-1.68-1.872-2.87-3.581-2.883h-0.026c-1.7,0-3.184,1.167-3.596,2.833l-7.206,29.091h-44.551
	c-1.737,0-3.24,1.217-3.621,2.927l-4.392,19.948L85.163,89.732c-0.394-1.68-1.872-2.87-3.584-2.883h-0.026
	c-1.699,0-3.182,1.167-3.596,2.833l-7.206,29.091H26.975c-3.278-9.319-4.976-18.247-4.976-26.534
	C21.999,58.187,49.451,30.482,83.189,30.482L83.189,30.482z M201.211,168.402c-20.28,24.178-47.157,45.643-72.212,57.722
	c-25.052-12.079-51.928-33.544-72.209-57.722c-11.92-14.212-20.997-28.514-26.885-42.147h43.743c1.699,0,3.184-1.17,3.596-2.835
	l4.202-16.966l12.317,52.828c0.393,1.695,1.889,2.885,3.607,2.885h0.021c1.73-0.006,3.222-1.225,3.596-2.929l7.264-32.982h44.474
	c1.698,0,3.184-1.17,3.596-2.835l4.202-16.963l12.314,52.825c0.392,1.695,1.889,2.885,3.607,2.885h0.022
	c1.73-0.006,3.222-1.225,3.599-2.929l7.262-32.982h40.77C222.211,139.888,213.133,154.19,201.211,168.402L201.211,168.402z
	 M201.211,168.402"/>
</svg>
