<?xml version="1.0" encoding="utf-8"?>
<!-- Generator: Adobe Illustrator 16.0.0, SVG Export Plug-In . SVG Version: 6.00 Build 0)  -->
<!DOCTYPE svg PUBLIC "-//W3C//DTD SVG 1.1 Tiny//EN" "http://www.w3.org/Graphics/SVG/1.1/DTD/svg11-tiny.dtd">
<svg version="1.1" baseProfile="tiny" id="Ebene_1" xmlns="http://www.w3.org/2000/svg" xmlns:xlink="http://www.w3.org/1999/xlink"
	 x="0px" y="0px" width="81px" height="136px" viewBox="0 0 81 136" xml:space="preserve">
<g>
	<path fill="#B0101D" d="M40.5,13.601c-14.85,0-27,12.24-27,27.2S25.65,68,40.5,68c14.85,0,27-12.24,27-27.2
		S55.35,13.601,40.5,13.601z M40.5,63.467C27.9,63.467,18,53.494,18,40.8c0-12.694,9.9-22.667,22.5-22.667
		c12.6,0,22.5,9.973,22.5,22.667C63,53.494,53.1,63.467,40.5,63.467z M40.5,0C18,0,0,18.133,0,40.8C0,53.04,5.4,63.92,13.5,71.173
		V136l27-27.2l27,27.2V71.173C75.6,63.92,81,53.04,81,40.8C81,18.133,63,0,40.5,0z M63,125.121l-22.5-22.667L18,125.121V74.8
		c6.3,4.533,13.95,6.8,22.5,6.8c8.55,0,16.199-2.72,22.5-6.8V125.121z M40.5,77.067c-19.8,0-36-16.32-36-36.267
		c0-19.947,16.2-36.267,36-36.267c19.8,0,36,16.32,36,36.267C76.5,60.747,60.3,77.067,40.5,77.067z"/>
</g>
</svg>
