<?xml version="1.0" encoding="utf-8"?>
<!-- Generator: Adobe Illustrator 16.0.0, SVG Export Plug-In . SVG Version: 6.00 Build 0)  -->
<!DOCTYPE svg PUBLIC "-//W3C//DTD SVG 1.1 Tiny//EN" "http://www.w3.org/Graphics/SVG/1.1/DTD/svg11-tiny.dtd">
<svg version="1.1" baseProfile="tiny" id="Ebene_1" xmlns="http://www.w3.org/2000/svg" xmlns:xlink="http://www.w3.org/1999/xlink"
	 x="0px" y="0px" width="255.121px" height="255.121px" viewBox="0 0 255.121 255.121" xml:space="preserve">
<g>
	<path fill="#B0101D" d="M200.807,55.693c-19.314-19.314-44.99-29.952-72.309-29.952c-27.312,0-52.994,10.637-72.306,29.952
		C36.876,75.007,26.241,100.683,26.241,128c0,27.316,10.635,52.992,29.952,72.307c19.314,19.313,44.994,29.951,72.306,29.951
		c27.318,0,52.994-10.638,72.309-29.951c19.313-19.314,29.951-44.99,29.951-72.307C230.758,100.683,220.121,75.007,200.807,55.693z
		 M128.499,222.099c-51.884,0-94.096-42.216-94.096-94.099c0-51.888,42.212-94.1,94.096-94.1c51.885,0,94.101,42.212,94.101,94.1
		C222.599,179.883,180.383,222.099,128.499,222.099z M128.499,43.029C81.646,43.029,43.53,81.146,43.53,128
		c0,46.853,38.116,84.971,84.968,84.971c46.854,0,84.973-38.118,84.973-84.971C213.471,81.146,175.353,43.029,128.499,43.029z
		 M128.499,51.191c32.318,0,60.032,20.062,71.354,48.385c-3.898-1.206-7.827-2.319-11.751-3.314
		c-19.354-4.938-39.409-7.441-59.604-7.441c-20.183,0-40.237,2.504-59.601,7.434c-3.92,1.002-7.851,2.112-11.75,3.321
		C68.468,71.253,96.184,51.191,128.499,51.191z M51.691,128c0-6.498,0.813-12.812,2.341-18.841c3.416-1.154,6.868-2.23,10.332-3.218
		l-5.866,24.89c-2.227-0.584-4.492-1.079-6.789-1.479C51.703,128.901,51.691,128.45,51.691,128z M52.309,137.763
		c32.128,6.502,56.713,32.97,60.848,65.503C81.254,196.771,56.476,170.444,52.309,137.763z M135.486,204.486
		c-2.305,0.208-4.631,0.326-6.987,0.326c-2.356-0.008-4.688-0.118-6.99-0.326c-0.259-2.589-0.634-5.148-1.121-7.663h16.218
		C136.118,199.337,135.745,201.897,135.486,204.486z M118.375,188.656c-7.65-25.542-27.018-46.173-52.065-55.383l6.994-29.698
		c17.964-4.368,36.521-6.591,55.194-6.591c18.686,0,37.238,2.223,55.194,6.599l6.994,29.684
		c-25.047,9.209-44.42,29.848-52.068,55.39H118.375z M143.833,203.266c4.139-32.541,28.724-59.001,60.856-65.503
		C200.526,170.444,175.742,196.779,143.833,203.266z M198.499,130.825l-5.862-24.883c3.466,0.991,6.921,2.068,10.331,3.222
		c1.527,6.029,2.337,12.339,2.337,18.837c0,0.449-0.007,0.9-0.015,1.353C202.989,129.752,200.729,130.248,198.499,130.825z
		 M128.499,104.792c-12.795,0-23.205,10.412-23.205,23.208c0,12.796,10.41,23.203,23.205,23.203
		c12.798,0,23.205-10.407,23.205-23.203C151.704,115.204,141.296,104.792,128.499,104.792z M128.499,143.044
		c-8.294,0-15.042-6.753-15.042-15.044c0-8.296,6.748-15.046,15.042-15.046c8.3,0,15.046,6.75,15.046,15.046
		C143.544,136.292,136.798,143.044,128.499,143.044z"/>
</g>
</svg>
