<?xml version="1.0" encoding="utf-8"?>
<!-- Generator: Adobe Illustrator 16.0.0, SVG Export Plug-In . SVG Version: 6.00 Build 0)  -->
<!DOCTYPE svg PUBLIC "-//W3C//DTD SVG 1.1 Tiny//EN" "http://www.w3.org/Graphics/SVG/1.1/DTD/svg11-tiny.dtd">
<svg version="1.1" baseProfile="tiny" id="Ebene_1" xmlns="http://www.w3.org/2000/svg" xmlns:xlink="http://www.w3.org/1999/xlink"
	 x="0px" y="0px" width="255.12px" height="255.12px" viewBox="0 0 255.12 255.12" xml:space="preserve">
<path fill="#B0101D" d="M187.875,212.393H175.81v-42.415c0-23.429-18.896-42.42-42.219-42.42c23.323,0,42.219-18.989,42.219-42.418
	V42.724h12.065c3.329,0,6.03-2.717,6.03-6.06c0-3.348-2.701-6.06-6.03-6.06H67.244c-3.328,0-6.031,2.712-6.031,6.06
	c0,3.343,2.703,6.06,6.031,6.06h12.065v42.415c0,23.429,18.902,42.418,42.221,42.418c-23.319,0-42.221,18.992-42.221,42.42v42.415
	H67.244c-3.328,0-6.031,2.715-6.031,6.06c0,3.348,2.703,6.062,6.031,6.062h120.631c3.329,0,6.03-2.714,6.03-6.062
	C193.905,215.107,191.204,212.393,187.875,212.393z M91.371,85.139c0-10.621,0-42.415,0-42.415h72.374c0,0,0,32.667,0,42.415
	c0,16.73-14.175,30.3-31.663,30.3h-9.045C105.551,115.439,91.371,101.869,91.371,85.139z M163.744,212.393H91.371
	c0,0,0-31.799,0-42.415c0-16.733,14.18-30.301,31.666-30.301h9.045c17.488,0,31.663,13.567,31.663,30.301
	C163.744,179.723,163.744,212.393,163.744,212.393z"/>
</svg>
