<?xml version="1.0" encoding="utf-8"?>
<!-- Generator: Adobe Illustrator 16.0.0, SVG Export Plug-In . SVG Version: 6.00 Build 0)  -->
<!DOCTYPE svg PUBLIC "-//W3C//DTD SVG 1.1 Tiny//EN" "http://www.w3.org/Graphics/SVG/1.1/DTD/svg11-tiny.dtd">
<svg version="1.1" baseProfile="tiny" id="Ebene_1" xmlns="http://www.w3.org/2000/svg" xmlns:xlink="http://www.w3.org/1999/xlink"
	 x="0px" y="0px" width="97px" height="96.999px" viewBox="0 0 97 96.999" xml:space="preserve">
<path fill="#AF111E" d="M48.5,8.242C26.268,8.242,8.242,26.267,8.242,48.5c0,22.232,18.026,40.256,40.258,40.256
	c22.234,0,40.258-18.023,40.258-40.256C88.758,26.267,70.734,8.242,48.5,8.242z M48.5,84.722c-19.974,0-36.223-16.252-36.223-36.222
	c0-19.975,16.249-36.224,36.223-36.224c19.971,0,36.222,16.249,36.222,36.224C84.722,68.47,68.471,84.722,48.5,84.722z M48.5,21.45
	c-2.985,0-5.41,2.423-5.41,5.41v27.049c0,2.984,2.425,5.41,5.41,5.41c2.986,0,5.41-2.426,5.41-5.41V26.86
	C53.91,23.873,51.486,21.45,48.5,21.45z M43.09,70.054c0,2.983,2.422,5.411,5.41,5.411c2.99,0,5.41-2.428,5.41-5.411
	c0-2.991-2.42-5.409-5.41-5.409C45.513,64.645,43.09,67.062,43.09,70.054z"/>
</svg>
