<svg xmlns="http://www.w3.org/2000/svg" width="54" height="38" viewBox="0 0 54 38">
  <defs>
    <style>
      .cls-1 {
        fill: #b10000;
        fill-rule: evenodd;
      }
    </style>
  </defs>
  <path id="stationaer_aufnahme.svg" class="cls-1" d="M1930.42,8272.3h2.68a0.64,0.64,0,0,1,.63.63v2.69a0.625,0.625,0,0,0,.62.63h3.09a0.625,0.625,0,0,0,.62-0.63v-2.69a0.64,0.64,0,0,1,.63-0.63h2.68a0.627,0.627,0,0,0,.63-0.63v-3.09a0.627,0.627,0,0,0-.63-0.63h-2.68a0.634,0.634,0,0,1-.63-0.63v-2.69a0.625,0.625,0,0,0-.62-0.63h-3.09a0.625,0.625,0,0,0-.62.63v2.69a0.634,0.634,0,0,1-.63.63h-2.68a0.627,0.627,0,0,0-.63.63v3.09A0.627,0.627,0,0,0,1930.42,8272.3Zm26.36,8.96h-32.79a4.336,4.336,0,0,0-3.88-6.23c-5.19,0-5.58-.12-6.72.44v-1.62a1.225,1.225,0,0,0-1.22-1.22h-6.95a1.218,1.218,0,0,0-1.22,1.22v26.93a1.218,1.218,0,0,0,1.22,1.22h6.95a1.225,1.225,0,0,0,1.22-1.22v-2.98h35.22v2.98a1.225,1.225,0,0,0,1.22,1.22h6.95a1.218,1.218,0,0,0,1.22-1.22v-18.3A1.212,1.212,0,0,0,1956.78,8281.26Zm-45.82,18.3h-4.53v-24.49h4.53v24.49Zm17.13-15.86h20.52v7.32h-20.52v-7.32Zm-12.82-6.23h4.84a1.9,1.9,0,0,1,0,3.79h-4.84A1.9,1.9,0,0,1,1915.27,8277.47Zm-1.88,6.23h12.27v7.32h-12.27v-7.32Zm35.22,11.66h-35.22v-1.9h35.22v1.9h0Zm6.96,4.2h-4.53V8283.7h4.53v15.86Z" transform="translate(-1904 -8264)"/>
</svg>
