<?xml version="1.0" encoding="utf-8"?>
<!-- Generator: Adobe Illustrator 16.0.0, SVG Export Plug-In . SVG Version: 6.00 Build 0)  -->
<!DOCTYPE svg PUBLIC "-//W3C//DTD SVG 1.1 Tiny//EN" "http://www.w3.org/Graphics/SVG/1.1/DTD/svg11-tiny.dtd">
<svg version="1.1" baseProfile="tiny" id="Ebene_1" xmlns="http://www.w3.org/2000/svg" xmlns:xlink="http://www.w3.org/1999/xlink"
	 x="0px" y="0px" width="255.121px" height="255.121px" viewBox="0 0 255.121 255.121" xml:space="preserve">
<g>
	<path fill="#B0101D" d="M227.325,83.228h-37.797V69.391c0-23.485-18.903-42.59-42.136-42.59h-38.716
		c-23.235,0-42.138,19.105-42.138,42.59v13.837H29.672c-2.314,0-4.192,1.895-4.192,4.237v138.498c0,2.342,1.878,4.235,4.192,4.235
		h197.652c2.316,0,4.194-1.894,4.194-4.235V87.465C231.519,85.123,229.641,83.228,227.325,83.228z M74.924,69.391
		c0-18.811,15.142-34.114,33.752-34.114h38.716c18.609,0,33.752,15.304,33.752,34.114v13.837H74.924V69.391z M223.13,221.724H33.867
		v-20.781H223.13V221.724z M223.13,192.468H33.867V91.702H223.13V192.468z M93.325,160.033h17.707v17.892
		c0,2.345,1.875,4.241,4.192,4.241h26.556c2.312,0,4.189-1.896,4.189-4.241v-17.892h17.707c2.316,0,4.194-1.898,4.194-4.238v-26.842
		c0-2.336-1.878-4.235-4.194-4.235h-17.707v-17.898c0-2.338-1.878-4.237-4.189-4.237h-26.556c-2.316,0-4.192,1.899-4.192,4.237
		v17.898H93.325c-2.316,0-4.192,1.899-4.192,4.235v26.842C89.133,158.134,91.008,160.033,93.325,160.033z M97.517,133.194h17.707
		c2.314,0,4.192-1.898,4.192-4.241v-17.896h18.169v17.896c0,2.343,1.873,4.241,4.194,4.241h17.701v18.362h-17.701
		c-2.321,0-4.194,1.898-4.194,4.238v17.895h-18.169v-17.895c0-2.34-1.878-4.238-4.192-4.238H97.517V133.194z"/>
</g>
</svg>
