<?xml version="1.0" encoding="utf-8"?>
<!-- Generator: Adobe Illustrator 16.0.0, SVG Export Plug-In . SVG Version: 6.00 Build 0)  -->
<!DOCTYPE svg PUBLIC "-//W3C//DTD SVG 1.1 Tiny//EN" "http://www.w3.org/Graphics/SVG/1.1/DTD/svg11-tiny.dtd">
<svg version="1.1" baseProfile="tiny" id="Ebene_1" xmlns="http://www.w3.org/2000/svg" xmlns:xlink="http://www.w3.org/1999/xlink"
	 x="0px" y="0px" width="255.121px" height="255.121px" viewBox="0 0 255.121 255.121" xml:space="preserve">
<path fill="#B0101D" d="M225.459,61.48c-0.244-0.082-95.697-31.84-95.697-31.84c-0.855-0.404-1.671-0.404-2.523,0L32.803,60.669
	c-2.36,0.974-2.93,3.008-2.93,4.186v127.402c0,2.112,1.261,3.779,2.93,4.187l93.255,29.77c1.426,0.525,2.975,0.733,4.927,0
	l93.212-29.77c1.671-0.853,2.93-2.52,2.93-4.187V64.855C227.126,63.596,226.719,62.336,225.459,61.48z M128.499,38.423
	l80.995,25.987l-30.58,9.798L99.098,47.981L128.499,38.423z M124.305,216.537l-86.044-27.25V70.793l86.044,27.491V216.537z
	 M128.499,90.394L47.504,64.855L85.66,52.412l79.528,26.231L128.499,90.394z M132.692,216.537V97.958l42.802-13.544v13.136
	l8.387-3.579V81.773l34.818-10.98v118.093h0.041L132.692,216.537z"/>
</svg>
