<?xml version="1.0" encoding="utf-8"?>
<!-- Generator: Adobe Illustrator 19.2.1, SVG Export Plug-In . SVG Version: 6.00 Build 0)  -->
<svg version="1.1" id="Ebene_1" xmlns="http://www.w3.org/2000/svg" xmlns:xlink="http://www.w3.org/1999/xlink" x="0px" y="0px"
	 width="13px" height="13px" viewBox="0 0 13 13" style="enable-background:new 0 0 13 13;" xml:space="preserve">
<style type="text/css">
	.st0{fill:#FFFFFF;}
</style>
<path class="st0" d="M6.4,0C2.8,0,0,3,0,6.6C0,10.2,3,13,6.6,13c3.6,0,6.5-3,6.4-6.6C13,2.8,10,0,6.4,0z M6.4,10.5L6.4,10.5
	c-0.6,0-1-0.4-1-1c0-0.5,0.4-0.9,0.9-0.9l0,0c0.6,0,1,0.4,0.9,1C7.3,10.1,6.9,10.5,6.4,10.5z M8.7,5.8C8.6,6,8.3,6.3,7.9,6.5
	L7.5,6.8C7.3,7,7.2,7.1,7.1,7.3c0,0.1-0.1,0.2-0.1,0.4l0,0.1H5.6l0-0.1c0-0.5,0-0.8,0.2-1.1C6.2,6.1,6.9,5.7,7,5.6
	c0.1-0.1,0.2-0.2,0.3-0.3C7.4,5.1,7.5,5,7.5,4.8c0-0.2-0.1-0.5-0.2-0.6C7.1,4,6.9,3.9,6.5,3.9C6.1,3.9,5.9,4,5.7,4.2
	C5.6,4.5,5.5,4.7,5.5,5V5H3.9L4,5c0-1,0.4-1.6,1-2c0.4-0.3,0.9-0.4,1.5-0.4c0.8,0,1.4,0.2,1.9,0.5C8.8,3.5,9.1,4,9.1,4.7
	C9.1,5.1,9,5.5,8.7,5.8z"/>
</svg>
