<?xml version="1.0" encoding="utf-8"?>
<!-- Generator: Adobe Illustrator 16.0.0, SVG Export Plug-In . SVG Version: 6.00 Build 0)  -->
<!DOCTYPE svg PUBLIC "-//W3C//DTD SVG 1.1 Tiny//EN" "http://www.w3.org/Graphics/SVG/1.1/DTD/svg11-tiny.dtd">
<svg version="1.1" baseProfile="tiny" id="Ebene_1" xmlns="http://www.w3.org/2000/svg" xmlns:xlink="http://www.w3.org/1999/xlink"
	 x="0px" y="0px" width="244.854px" height="41.457px" viewBox="0 0 244.854 41.457" overflow="auto" xml:space="preserve">
<path fill="#B10000" d="M4.536,9.302C1.78,9.302,0,7.35,0,4.938c0-2.469,1.837-4.363,4.651-4.363c2.813,0,4.536,1.894,4.593,4.363
	c0,2.412-1.78,4.364-4.651,4.364H4.536z M0.229,12.748h8.728v28.078H0.229V12.748z"/>
<path fill="#1D1D1B" d="M21.763,30.891l-2.699,9.934H9.992l11.828-38.7h11.427l12.057,38.7h-9.416l-2.986-9.934H21.763z
	 M31.581,24.346l-2.412-8.211c-0.631-2.297-1.32-5.225-1.894-7.465h-0.173c-0.516,2.297-1.148,5.226-1.722,7.465l-2.354,8.211
	H31.581z"/>
<path fill="#1D1D1B" d="M46.398,21.705c0-3.502-0.115-6.432-0.229-8.958h7.406l0.345,3.847h0.172
	c1.206-1.838,3.732-4.479,8.498-4.479c3.675,0,6.489,1.895,7.694,4.823h0.115c1.091-1.492,2.297-2.641,3.675-3.445
	c1.55-0.861,3.273-1.378,5.34-1.378c5.397,0,9.474,3.79,9.474,12.173v16.536H80.39V25.609c0-4.077-1.321-6.431-4.134-6.431
	c-2.067,0-3.445,1.378-4.077,3.043c-0.172,0.631-0.287,1.493-0.287,2.182v16.422h-8.498V25.092c0-3.503-1.263-5.914-4.077-5.914
	c-2.239,0-3.56,1.722-4.076,3.1c-0.287,0.689-0.345,1.493-0.345,2.239v16.308h-8.498V21.705z"/>
<path fill="#1D1D1B" d="M92.337,0h8.728v16.077h0.115c1.665-2.411,4.593-3.962,8.498-3.962c6.718,0,11.598,5.57,11.541,14.183
	c0,10.105-6.373,15.159-12.804,15.159c-3.273,0-6.489-1.206-8.441-4.536h-0.115l-0.344,3.904h-7.407
	c0.115-1.838,0.229-5.225,0.229-8.383V0z M101.065,28.882c0,0.573,0.058,1.091,0.172,1.55c0.575,2.297,2.584,4.134,5.111,4.134
	c3.732,0,6.029-2.871,6.029-7.924c0-4.364-1.953-7.808-6.029-7.808c-2.354,0-4.536,1.779-5.111,4.306
	c-0.114,0.516-0.172,1.034-0.172,1.607V28.882z"/>
<path fill="#1D1D1B" d="M149.702,31.81c0,3.675,0.114,6.661,0.229,9.015h-7.579l-0.4-3.962h-0.174
	c-1.091,1.723-3.731,4.593-8.784,4.593c-5.742,0-9.876-3.56-9.876-12.229V12.747h8.728v15.101c0,4.077,1.32,6.545,4.421,6.545
	c2.412,0,3.847-1.665,4.364-3.042c0.229-0.517,0.344-1.149,0.344-1.896V12.747h8.729V31.81z"/>
<rect x="153.265" y="0" fill="#1D1D1B" width="8.729" height="40.825"/>
<path fill="#1D1D1B" d="M188.979,34.049c0,2.641,0.115,5.225,0.46,6.775h-7.867l-0.516-2.813h-0.173
	c-1.837,2.239-4.708,3.446-8.038,3.446c-5.686,0-9.073-4.136-9.073-8.614c0-7.292,6.546-10.737,16.48-10.737v-0.344
	c0-1.493-0.805-3.618-5.11-3.618c-2.872,0-5.915,0.977-7.752,2.067l-1.608-5.569c1.952-1.091,5.8-2.527,10.91-2.527
	c9.359,0,12.287,5.512,12.287,12.115V34.049z M180.54,27.561c-4.595,0-8.154,1.091-8.154,4.421c0,2.24,1.493,3.33,3.446,3.33
	c2.124,0,3.961-1.435,4.535-3.215c0.114-0.459,0.173-0.977,0.173-1.493V27.561z"/>
<path fill="#1D1D1B" d="M192.485,21.705c0-3.502-0.115-6.432-0.229-8.958h7.578l0.401,3.904h0.173
	c1.148-1.837,3.962-4.536,8.67-4.536c5.742,0,10.049,3.847,10.049,12.115v16.595H210.4V25.264c0-3.617-1.264-6.086-4.421-6.086
	c-2.412,0-3.848,1.665-4.479,3.272c-0.229,0.574-0.286,1.379-0.286,2.183v16.191h-8.729V21.705z"/>
<path fill="#1D1D1B" d="M220.452,35.772l8.843-11.024c1.606-1.838,2.87-3.272,4.478-4.938v-0.116h-12.345v-6.947h22.968v5.282
	l-8.44,10.623c-1.551,1.78-2.985,3.561-4.594,5.11v0.114h13.493v6.948h-24.402V35.772z"/>
</svg>
