<?xml version="1.0" encoding="utf-8"?>
<!-- Generator: Adobe Illustrator 16.0.0, SVG Export Plug-In . SVG Version: 6.00 Build 0)  -->
<!DOCTYPE svg PUBLIC "-//W3C//DTD SVG 1.1 Tiny//EN" "http://www.w3.org/Graphics/SVG/1.1/DTD/svg11-tiny.dtd">
<svg version="1.1" baseProfile="tiny" id="Ebene_1" xmlns="http://www.w3.org/2000/svg" xmlns:xlink="http://www.w3.org/1999/xlink"
	 x="0px" y="0px" width="152.678px" height="152.152px" viewBox="0 0 152.678 152.152" xml:space="preserve">
<path fill="#FFFFFF" d="M76.339,0C34.178,0,0,34.181,0,76.339s34.178,76.343,76.339,76.343c42.154,0,76.339-34.185,76.339-76.343
	S118.494,0,76.339,0z M116.65,111.388l-6.112,6.113c-1.091,1.091-4.283,1.769-4.392,1.769c-19.336,0.169-37.953-7.428-51.63-21.104
	c-13.717-13.73-21.321-32.412-21.118-51.812c0-0.01,0.698-3.114,1.789-4.195l6.113-6.113c2.236-2.243,6.533-3.26,9.542-2.253
	l1.288,0.427c2.996,1.007,6.147,4.328,6.974,7.381l3.076,11.284c0.834,3.066-0.291,7.432-2.521,9.664l-4.087,4.084
	c4.012,14.835,15.648,26.472,30.484,30.49l4.08-4.08c2.25-2.25,6.607-3.368,9.664-2.534l11.284,3.084
	c3.057,0.84,6.378,3.964,7.38,6.967l0.435,1.301C119.897,104.862,118.887,109.159,116.65,111.388z"/>
</svg>
