<svg xmlns="http://www.w3.org/2000/svg" width="41" height="29" viewBox="0 0 41 29">
  <defs>
    <style>
      .cls-1 {
        fill: #4c5454;
        fill-rule: evenodd;
      }
    </style>
  </defs>
  <path id="stationaer_klein.svg" class="cls-1" d="M5400.06,4038.34h2.03a0.474,0.474,0,0,1,.48.48v2.05a0.474,0.474,0,0,0,.48.48h2.34a0.478,0.478,0,0,0,.47-0.48v-2.05a0.48,0.48,0,0,1,.48-0.48h2.03a0.48,0.48,0,0,0,.48-0.48v-2.36a0.482,0.482,0,0,0-.48-0.49h-2.03a0.48,0.48,0,0,1-.48-0.48v-2.05a0.478,0.478,0,0,0-.47-0.48h-2.34a0.48,0.48,0,0,0-.48.48v2.05a0.474,0.474,0,0,1-.48.48h-2.03a0.489,0.489,0,0,0-.48.49v2.36A0.487,0.487,0,0,0,5400.06,4038.34Zm20.02,6.83h-24.9a3.306,3.306,0,0,0-2.95-4.75c-3.94,0-4.24-.09-5.1.33v-1.23a0.928,0.928,0,0,0-.93-0.93h-5.28a0.92,0.92,0,0,0-.92.93v20.55a0.926,0.926,0,0,0,.92.93h5.28a0.935,0.935,0,0,0,.93-0.93v-2.27h26.74v2.27a0.935,0.935,0,0,0,.93.93h5.28a0.926,0.926,0,0,0,.92-0.93V4046.1A0.926,0.926,0,0,0,5420.08,4045.17Zm-34.8,13.97h-3.43v-18.69h3.43v18.69Zm13.01-12.11h15.58v5.59h-15.58v-5.59Zm-9.73-4.75h3.67a1.445,1.445,0,0,1,0,2.89h-3.67A1.445,1.445,0,0,1,5388.56,4042.28Zm-1.43,4.75h9.31v5.59h-9.31v-5.59Zm26.74,8.91h-26.74v-1.46h26.74v1.46h0Zm5.28,3.2h-3.43v-12.11h3.43v12.11Z" transform="translate(-5380 -4032)"/>
</svg>
