<?xml version="1.0" encoding="utf-8"?>
<!-- Generator: Adobe Illustrator 16.0.0, SVG Export Plug-In . SVG Version: 6.00 Build 0)  -->
<!DOCTYPE svg PUBLIC "-//W3C//DTD SVG 1.1 Tiny//EN" "http://www.w3.org/Graphics/SVG/1.1/DTD/svg11-tiny.dtd">
<svg version="1.1" baseProfile="tiny" id="Ebene_1" xmlns="http://www.w3.org/2000/svg" xmlns:xlink="http://www.w3.org/1999/xlink"
	 x="0px" y="0px" width="51.023px" height="51.023px" viewBox="0.06 255.06 51.023 51.023" xml:space="preserve">
<g>
	<path fill="#646464" d="M21.393,293.587h4.541c0.608,0,1.104-0.478,1.104-1.063c0-0.587-0.496-1.064-1.104-1.064h-4.541
		c-0.608,0-1.104,0.478-1.104,1.064C20.289,293.11,20.785,293.587,21.393,293.587z M23.572,267.042c-0.3,0-0.584,0.108-0.779,0.297
		c-0.207,0.199-0.326,0.474-0.326,0.751c0,0.28,0.119,0.556,0.326,0.755s0.49,0.313,0.778,0.313c0.286,0,0.571-0.114,0.784-0.314
		c0.204-0.196,0.32-0.471,0.32-0.754c0-0.28-0.116-0.554-0.321-0.751C24.156,267.151,23.871,267.042,23.572,267.042z
		 M37.933,275.286l-1.561-1.574c-0.185-0.187-0.484-0.187-0.669,0l-1.632,1.646v-5.566c0-3.43-2.896-6.22-6.456-6.22h-8.088
		c-3.56,0-6.456,2.79-6.456,6.22v21.561c0,3.43,2.896,6.22,6.456,6.22h8.088c3.56,0,6.456-2.79,6.456-6.22v-11.494l3.861-3.896
		c0.089-0.09,0.139-0.211,0.139-0.338S38.022,275.375,37.933,275.286z M19.528,265.7h8.088c2.313,0,4.2,1.791,4.246,4.01h-16.58
		C15.327,267.491,17.214,265.7,19.528,265.7z M31.863,291.352c0,2.256-1.905,4.092-4.247,4.092h-8.088
		c-2.342,0-4.247-1.836-4.247-4.092v-1.357h16.582V291.352z M31.863,277.586l-2.659,2.684l-2.765-2.789
		c-0.185-0.187-0.483-0.187-0.669,0l-1.56,1.574c-0.186,0.187-0.186,0.488,0,0.676l4.659,4.701c0.092,0.094,0.213,0.14,0.334,0.14
		s0.242-0.046,0.335-0.14l2.324-2.346v5.78H15.281v-16.03h16.582V277.586z"/>
</g>
</svg>
