<?xml version="1.0" encoding="utf-8"?>
<!-- Generator: Adobe Illustrator 16.0.0, SVG Export Plug-In . SVG Version: 6.00 Build 0)  -->
<!DOCTYPE svg PUBLIC "-//W3C//DTD SVG 1.1 Tiny//EN" "http://www.w3.org/Graphics/SVG/1.1/DTD/svg11-tiny.dtd">
<svg version="1.1" baseProfile="tiny" id="Ebene_1" xmlns="http://www.w3.org/2000/svg" xmlns:xlink="http://www.w3.org/1999/xlink"
	 x="0px" y="0px" width="51.023px" height="51.023px" viewBox="0.06 255.06 51.023 51.023" xml:space="preserve">
<path fill="#646464" d="M49.582,282.984c-1.256-3.708-4.72-6.199-8.619-6.199c-0.585,0-1.165,0.074-1.737,0.188l-3.409-10.063
	c-0.17-0.5-0.638-0.837-1.163-0.837h-2.297c-0.679,0-1.229,0.553-1.229,1.234s0.551,1.234,1.229,1.234h1.416l1.237,3.653H21.536V270
	l2.158-0.281c0.333-0.043,0.61-0.307,0.654-0.656c0.055-0.417-0.238-0.799-0.654-0.853l-6.845-0.892
	c-0.136-0.017-0.283-0.019-0.426,0c-0.904,0.118-1.544,0.951-1.427,1.86c0.118,0.908,0.946,1.55,1.853,1.432l2.228-0.29v2.593
	l-4.097,5.264c-1.396-0.875-3.038-1.389-4.802-1.389c-5.021,0-9.106,4.101-9.106,9.141c0,5.041,4.085,9.143,9.106,9.143
	c4.457,0,8.169-3.234,8.948-7.487h3.338v1.261h-0.587c-0.453,0-0.819,0.368-0.819,0.823s0.366,0.823,0.819,0.823h3.633
	c0.453,0,0.819-0.368,0.819-0.823s-0.366-0.823-0.819-0.823h-0.587v-1.261h0.551c0.379,0,0.736-0.175,0.969-0.474l9.488-12.189
	l0.971,2.863c-1.773,0.887-3.222,2.29-4.111,4.104c-1.076,2.19-1.236,4.67-0.453,6.982c1.258,3.709,4.723,6.2,8.621,6.2
	c0.995,0,1.981-0.164,2.932-0.488c2.304-0.786,4.164-2.426,5.238-4.616C50.205,287.776,50.366,285.296,49.582,282.984z
	 M15.318,281.751c0.765,0.946,1.27,2.096,1.426,3.364H12.7L15.318,281.751z M10.179,292.603c-3.666,0-6.647-2.994-6.647-6.674
	c0-3.679,2.982-6.672,6.647-6.672c1.192,0,2.295,0.342,3.264,0.896L9.21,285.59c-0.29,0.372-0.342,0.877-0.137,1.301
	c0.207,0.425,0.636,0.693,1.105,0.693h6.415C15.855,290.461,13.271,292.603,10.179,292.603z M24.875,285.116h-5.631
	c-0.184-2.061-1.052-3.921-2.371-5.361l2.204-2.832v3.237c0,0.682,0.551,1.234,1.229,1.234s1.229-0.553,1.229-1.234v-5.497h11.476
	L24.875,285.116z M39.161,284.452l0.635,1.873c0.174,0.514,0.651,0.837,1.164,0.837c0.131,0,0.265-0.021,0.396-0.066
	c0.643-0.22,0.985-0.92,0.768-1.566l-0.63-1.857c0.768,0.183,1.412,0.729,1.674,1.503c0.201,0.593,0.16,1.228-0.115,1.788
	c-0.275,0.562-0.752,0.98-1.342,1.183c-1.198,0.406-2.554-0.271-2.958-1.463C38.485,285.89,38.67,285.056,39.161,284.452z
	 M46.923,288.875c-0.785,1.6-2.143,2.796-3.823,3.37c-0.695,0.237-1.415,0.357-2.141,0.357c-2.846,0-5.375-1.819-6.293-4.526
	c-0.572-1.688-0.454-3.497,0.33-5.096c0.602-1.224,1.539-2.204,2.698-2.858l0.892,2.634c-1.332,1.008-1.951,2.785-1.386,4.456
	c0.548,1.617,2.06,2.704,3.759,2.704c0.436,0,0.865-0.072,1.279-0.214c1.004-0.343,1.816-1.058,2.284-2.013
	c0.469-0.955,0.539-2.037,0.197-3.046c-0.551-1.625-2.143-2.67-3.803-2.674l-0.894-2.639c0.311-0.045,0.624-0.078,0.938-0.078
	c2.846,0,5.374,1.818,6.291,4.526C47.825,285.466,47.708,287.277,46.923,288.875z"/>
</svg>
