<?xml version="1.0" encoding="utf-8"?>
<!-- Generator: Adobe Illustrator 16.0.0, SVG Export Plug-In . SVG Version: 6.00 Build 0)  -->
<!DOCTYPE svg PUBLIC "-//W3C//DTD SVG 1.1 Tiny//EN" "http://www.w3.org/Graphics/SVG/1.1/DTD/svg11-tiny.dtd">
<svg version="1.1" baseProfile="tiny" id="Ebene_1" xmlns="http://www.w3.org/2000/svg" xmlns:xlink="http://www.w3.org/1999/xlink"
	 x="0px" y="0px" width="51.023px" height="51.023px" viewBox="0 0 51.023 51.023" xml:space="preserve">
<g>
	<path fill="#646464" d="M42.166,21.194c-0.507-0.241-1.04-0.495-1.594-0.778c-2.447-6.252-8.438-10.417-15.06-10.417
		c-6.623,0-12.611,4.165-15.06,10.417c-0.555,0.283-1.087,0.537-1.595,0.778C4.171,23.427,1.52,25.17,1.52,35.011v1.271h5.265
		c-0.072-0.414-0.117-0.836-0.117-1.271s0.045-0.858,0.117-1.272H4.032c0.19-7.53,2.155-8.466,5.882-10.24
		c0.664-0.315,1.368-0.653,2.108-1.044l0.432-0.229l0.167-0.466c1.967-5.514,7.147-9.218,12.891-9.218s10.925,3.704,12.892,9.218
		l0.167,0.466l0.432,0.229c0.74,0.393,1.444,0.729,2.108,1.044c3.727,1.774,5.69,2.71,5.881,10.24h-3.018
		c0.073,0.414,0.117,0.837,0.117,1.272s-0.044,0.857-0.117,1.271h5.529v-1.271C49.503,25.17,46.851,23.427,42.166,21.194z
		 M20.675,33.739c0.073,0.414,0.117,0.837,0.117,1.272s-0.044,0.857-0.117,1.271h9.408c-0.072-0.414-0.116-0.836-0.116-1.271
		s0.044-0.858,0.116-1.272H20.675z M13.729,28.998c-2.825,0-5.19,2.035-5.765,4.741c-0.088,0.411-0.136,0.835-0.136,1.272
		c0,0.437,0.048,0.86,0.136,1.271c0.574,2.707,2.94,4.741,5.765,4.741c2.825,0,5.191-2.034,5.766-4.741
		c0.088-0.411,0.136-0.835,0.136-1.271c0-0.438-0.048-0.861-0.136-1.272C18.921,31.033,16.555,28.998,13.729,28.998z M16.89,36.283
		c-0.5,1.283-1.726,2.197-3.161,2.197c-1.435,0-2.66-0.912-3.159-2.197c-0.154-0.395-0.245-0.821-0.245-1.271
		c0-0.451,0.091-0.877,0.245-1.272c0.5-1.283,1.725-2.197,3.159-2.197c1.436,0,2.661,0.913,3.161,2.197
		c0.153,0.395,0.244,0.821,0.244,1.272C17.135,35.462,17.044,35.888,16.89,36.283z M37.027,28.998c-2.824,0-5.19,2.035-5.765,4.741
		c-0.087,0.411-0.136,0.835-0.136,1.272c0,0.437,0.049,0.86,0.136,1.271c0.574,2.707,2.938,4.741,5.765,4.741
		s5.191-2.034,5.767-4.741c0.087-0.411,0.135-0.835,0.135-1.271c0-0.438-0.048-0.861-0.135-1.272
		C42.219,31.033,39.852,28.998,37.027,28.998z M40.187,36.283c-0.5,1.283-1.725,2.197-3.16,2.197s-2.661-0.912-3.16-2.197
		c-0.154-0.395-0.245-0.821-0.245-1.271c0.001-0.451,0.092-0.878,0.245-1.272c0.5-1.283,1.725-2.197,3.16-2.197
		s2.661,0.913,3.16,2.197c0.154,0.396,0.245,0.821,0.245,1.272C40.432,35.462,40.342,35.888,40.187,36.283z M34.191,23.476
		c0-4.879-3.894-8.846-8.68-8.846c-4.787,0-8.682,3.967-8.682,8.846v1.271h17.361V23.476z M19.454,22.204
		c0.579-2.867,3.075-5.03,6.058-5.03c2.983,0,5.479,2.163,6.059,5.03H19.454z"/>
</g>
</svg>
