<?xml version="1.0" encoding="utf-8"?>
<!-- Generator: Adobe Illustrator 16.0.0, SVG Export Plug-In . SVG Version: 6.00 Build 0)  -->
<!DOCTYPE svg PUBLIC "-//W3C//DTD SVG 1.1 Tiny//EN" "http://www.w3.org/Graphics/SVG/1.1/DTD/svg11-tiny.dtd">
<svg version="1.1" baseProfile="tiny" id="Ebene_1" xmlns="http://www.w3.org/2000/svg" xmlns:xlink="http://www.w3.org/1999/xlink"
	 x="0px" y="0px" width="51.023px" height="51.023px" viewBox="0 0 51.023 51.023" xml:space="preserve">
<path fill="#646464" d="M7.901,27.067h31.193l-7.443,6.935c-0.651,0.606-0.651,1.592,0,2.199c0.653,0.608,1.71,0.608,2.36,0
	l10.292-9.591c0.651-0.607,0.651-1.59,0-2.198L34.01,14.823c-0.326-0.306-0.753-0.457-1.181-0.457c-0.427,0-0.854,0.151-1.18,0.457
	c-0.651,0.606-0.651,1.591,0,2.197l7.443,6.937H7.901c-0.922,0-1.668,0.695-1.668,1.555C6.232,26.371,6.979,27.067,7.901,27.067z"/>
</svg>
