<?xml version="1.0" encoding="utf-8"?>
<!-- Generator: Adobe Illustrator 16.0.0, SVG Export Plug-In . SVG Version: 6.00 Build 0)  -->
<!DOCTYPE svg PUBLIC "-//W3C//DTD SVG 1.1 Tiny//EN" "http://www.w3.org/Graphics/SVG/1.1/DTD/svg11-tiny.dtd">
<svg version="1.1" baseProfile="tiny" id="Ebene_1" xmlns="http://www.w3.org/2000/svg" xmlns:xlink="http://www.w3.org/1999/xlink"
	 x="0px" y="0px" width="51.023px" height="51.023px" viewBox="0.06 255.06 51.023 51.023" xml:space="preserve">
<g>
	<path fill="#646464" d="M30.742,292.725H13.871v-24.307h16.871v6.024l1.799-1.846v-5.103c0-0.51-0.402-0.923-0.899-0.923h-18.67
		c-0.497,0-0.899,0.413-0.899,0.923v26.154c0,0.51,0.402,0.923,0.899,0.923h18.67c0.497,0,0.899-0.413,0.899-0.923v-10.16
		l-1.799,1.847V292.725z M28.09,270.632H16.522c-0.38,0-0.688,0.316-0.688,0.706s0.308,0.705,0.688,0.705H28.09
		c0.38,0,0.688-0.315,0.688-0.705S28.47,270.632,28.09,270.632z M28.778,275.101c0-0.39-0.308-0.706-0.688-0.706H16.522
		c-0.38,0-0.688,0.316-0.688,0.706s0.308,0.705,0.688,0.705H28.09C28.47,275.806,28.778,275.491,28.778,275.101z M27.124,278.159
		H16.522c-0.38,0-0.688,0.315-0.688,0.705s0.308,0.706,0.688,0.706h9.228L27.124,278.159z M23.279,282.835
		c0.094-0.319,0.227-0.626,0.389-0.914h-7.146c-0.38,0-0.688,0.315-0.688,0.705s0.308,0.706,0.688,0.706h6.613L23.279,282.835z
		 M16.522,285.684c-0.38,0-0.688,0.316-0.688,0.706c0,0.389,0.308,0.705,0.688,0.705h6.036c-0.178-0.443-0.224-0.934-0.098-1.411
		H16.522z M38.509,271.916c-0.359-0.37-0.848-0.577-1.356-0.577s-0.997,0.207-1.356,0.577l-10.168,10.438
		c-0.277,0.285-0.48,0.636-0.593,1.021l-0.811,2.788c-0.034,0.118-0.003,0.246,0.082,0.333c0.062,0.064,0.146,0.099,0.231,0.099
		c0.03,0,0.062-0.005,0.093-0.015l2.716-0.831c0.376-0.116,0.717-0.325,0.994-0.609l10.168-10.438
		c0.36-0.369,0.562-0.87,0.562-1.393S38.87,272.285,38.509,271.916z"/>
</g>
</svg>
