<?xml version="1.0" encoding="utf-8"?>
<!-- Generator: Adobe Illustrator 16.0.0, SVG Export Plug-In . SVG Version: 6.00 Build 0)  -->
<!DOCTYPE svg PUBLIC "-//W3C//DTD SVG 1.1 Tiny//EN" "http://www.w3.org/Graphics/SVG/1.1/DTD/svg11-tiny.dtd">
<svg version="1.1" baseProfile="tiny" id="Ebene_1" xmlns="http://www.w3.org/2000/svg" xmlns:xlink="http://www.w3.org/1999/xlink"
	 x="0px" y="0px" width="51.023px" height="51.023px" viewBox="0.06 255.06 51.023 51.023" xml:space="preserve">
<g>
	<path fill="#646464" d="M39.628,265.701h-3.543v-1.841c0-0.711-0.568-1.287-1.268-1.287c-0.701,0-1.27,0.576-1.27,1.287v1.841
		H17.595v-1.841c0-0.711-0.567-1.287-1.269-1.287c-0.7,0-1.269,0.576-1.269,1.287v1.841h-3.543c-1.898,0-3.443,1.567-3.443,3.494
		v25.884c0,1.927,1.545,3.493,3.443,3.493h28.113c1.899,0,3.443-1.566,3.443-3.493v-25.884
		C43.072,267.268,41.528,265.701,39.628,265.701z M40.535,295.079c0,0.508-0.405,0.919-0.906,0.919H11.515
		c-0.501,0-0.906-0.411-0.906-0.919v-20.074h29.926V295.079z M40.535,272.431H10.609v-3.236c0-0.508,0.405-0.919,0.906-0.919h3.543
		v1.469c0,0.711,0.568,1.287,1.269,1.287c0.701,0,1.269-0.576,1.269-1.287v-1.469h15.953v1.469c0,0.711,0.568,1.287,1.27,1.287
		c0.699,0,1.268-0.576,1.268-1.287v-1.469h3.543c0.501,0,0.906,0.412,0.906,0.919V272.431z M17.125,281.053
		c0.122,0,0.247-0.019,0.37-0.056l0.65-0.201v11.074c0,0.711,0.567,1.287,1.269,1.287c0.7,0,1.269-0.576,1.269-1.287v-12.812
		c0-0.008-0.001-0.017-0.001-0.025c0-0.012-0.001-0.023-0.001-0.036c-0.001-0.022-0.003-0.045-0.005-0.067
		c-0.001-0.006-0.002-0.012-0.002-0.018c-0.002-0.014-0.004-0.028-0.006-0.043c-0.002-0.014-0.004-0.028-0.007-0.043
		c-0.001-0.006-0.002-0.011-0.003-0.017c-0.006-0.027-0.012-0.055-0.02-0.082c-0.002-0.009-0.005-0.019-0.007-0.028
		c-0.002-0.005-0.003-0.01-0.005-0.016c-0.005-0.016-0.011-0.032-0.016-0.048c-0.004-0.011-0.008-0.021-0.012-0.031
		c-0.007-0.021-0.015-0.04-0.023-0.06l-0.012-0.026c-0.012-0.025-0.023-0.05-0.036-0.074c-0.068-0.128-0.157-0.241-0.26-0.336
		l-0.003-0.003c-0.012-0.011-0.023-0.021-0.035-0.031c-0.004-0.003-0.008-0.007-0.013-0.01c-0.009-0.008-0.018-0.015-0.027-0.022
		c-0.007-0.006-0.015-0.012-0.022-0.018c-0.006-0.005-0.012-0.009-0.018-0.013c-0.012-0.009-0.022-0.017-0.034-0.024
		c-0.002-0.002-0.005-0.003-0.008-0.005c-0.132-0.088-0.28-0.151-0.44-0.185c-0.026-0.006-0.053-0.01-0.08-0.014
		c-0.01-0.001-0.019-0.002-0.028-0.004l-0.064-0.006c-0.01,0-0.021-0.001-0.03-0.001c-0.017-0.001-0.034-0.002-0.051-0.002
		c-0.006,0-0.012,0.001-0.017,0.001c-0.01,0-0.019,0-0.028,0.001c-0.028,0.001-0.056,0.002-0.083,0.005
		c-0.005,0.001-0.011,0.001-0.017,0.002c-0.015,0.002-0.028,0.004-0.043,0.006c-0.014,0.002-0.027,0.004-0.042,0.007
		c-0.006,0.001-0.012,0.002-0.017,0.003c-0.022,0.005-0.044,0.01-0.065,0.016c-0.012,0.003-0.022,0.006-0.033,0.009
		c-0.009,0.003-0.017,0.005-0.025,0.007l-0.017,0.006l-2.271,0.701c-0.67,0.207-1.048,0.927-0.844,1.605
		C16.079,280.696,16.582,281.053,17.125,281.053z M27.119,292.507c0.814,0.432,1.682,0.65,2.579,0.65s1.765-0.219,2.579-0.65
		c0.764-0.404,1.445-0.977,2.025-1.703c1.148-1.438,1.781-3.334,1.781-5.34c0-2.005-0.633-3.901-1.781-5.34
		c-0.58-0.726-1.262-1.299-2.025-1.703c-0.814-0.431-1.682-0.649-2.579-0.649s-1.765,0.219-2.579,0.649
		c-0.764,0.404-1.445,0.978-2.025,1.703c-1.149,1.438-1.782,3.335-1.782,5.34c0,2.006,0.633,3.902,1.782,5.34
		C25.673,291.531,26.355,292.103,27.119,292.507z M27.064,281.746c0.721-0.902,1.656-1.399,2.634-1.399s1.913,0.497,2.634,1.399
		c0.783,0.981,1.216,2.303,1.216,3.719c0,1.417-0.433,2.738-1.216,3.719c-0.721,0.902-1.656,1.4-2.634,1.4s-1.913-0.498-2.634-1.4
		c-0.784-0.98-1.216-2.302-1.216-3.719C25.848,284.048,26.28,282.727,27.064,281.746z"/>
</g>
</svg>
