<?xml version="1.0" encoding="utf-8"?>
<!-- Generator: Adobe Illustrator 16.0.0, SVG Export Plug-In . SVG Version: 6.00 Build 0)  -->
<!DOCTYPE svg PUBLIC "-//W3C//DTD SVG 1.1 Tiny//EN" "http://www.w3.org/Graphics/SVG/1.1/DTD/svg11-tiny.dtd">
<svg version="1.1" baseProfile="tiny" id="Ebene_1" xmlns="http://www.w3.org/2000/svg" xmlns:xlink="http://www.w3.org/1999/xlink"
	 x="0px" y="0px" width="51.023px" height="51.023px" viewBox="0.06 255.06 51.023 51.023" xml:space="preserve">
<path fill="#646464" d="M43.267,268.099c-0.045-0.015-17.465-5.969-17.465-5.969c-0.156-0.076-0.305-0.076-0.461,0l-17.234,5.816
	c-0.431,0.183-0.535,0.564-0.535,0.785v23.885c0,0.396,0.23,0.709,0.535,0.785l17.019,5.581c0.261,0.099,0.543,0.137,0.899,0
	l17.012-5.581c0.305-0.16,0.535-0.473,0.535-0.785v-23.885C43.572,268.495,43.498,268.259,43.267,268.099z M25.572,263.776
	l14.782,4.871l-5.581,1.838l-14.566-4.917L25.572,263.776z M24.806,297.168L9.103,292.06v-22.215l15.704,5.153V297.168z
	 M25.572,273.52l-14.782-4.788l6.964-2.333l14.515,4.918L25.572,273.52z M26.337,297.168v-22.231l7.811-2.539v2.463l1.531-0.671
	v-2.287l6.354-2.059v22.139h0.007L26.337,297.168z"/>
</svg>
