<?xml version="1.0" encoding="utf-8"?>
<!-- Generator: Adobe Illustrator 16.0.0, SVG Export Plug-In . SVG Version: 6.00 Build 0)  -->
<!DOCTYPE svg PUBLIC "-//W3C//DTD SVG 1.1 Tiny//EN" "http://www.w3.org/Graphics/SVG/1.1/DTD/svg11-tiny.dtd">
<svg version="1.1" baseProfile="tiny" id="Ebene_1" xmlns="http://www.w3.org/2000/svg" xmlns:xlink="http://www.w3.org/1999/xlink"
	 x="0px" y="0px" width="51.023px" height="51.023px" viewBox="0.06 255.06 51.023 51.023" xml:space="preserve">
<g>
	<path fill="#646464" d="M8.778,273.655l13.62-10.2l13.619,10.2c0.192,0.145,0.417,0.214,0.641,0.214
		c0.323,0,0.642-0.146,0.851-0.421c0.354-0.467,0.262-1.13-0.209-1.482l-14.26-10.681c-0.38-0.284-0.904-0.284-1.283,0
		L7.496,271.966c-0.47,0.353-0.563,1.016-0.209,1.482S8.309,274.007,8.778,273.655z M43.585,283.705
		c-0.841-1.868-2.558-3.045-4.592-3.147c-0.104-0.006-0.208-0.008-0.313-0.008c-0.326,0-0.645,0.027-0.957,0.076v-3.31
		c0-0.332-0.156-0.645-0.424-0.845L23.04,265.79c-0.38-0.284-0.904-0.284-1.283,0L7.496,276.471c-0.267,0.2-0.424,0.513-0.424,0.845
		v17.983c0,0.584,0.477,1.059,1.065,1.059h21.967l2.703,3.32c0.202,0.249,0.507,0.394,0.828,0.394c0.322,0,0.627-0.145,0.829-0.394
		l3.016-3.705c0.001,0,0.001-0.001,0.001-0.001l5.371-6.6C44.156,287.77,44.438,285.598,43.585,283.705z M9.202,294.242v-16.398
		l13.196-9.882l13.195,9.882v3.542c-0.778,0.455-1.448,1.074-1.958,1.812c-1.102-1.597-2.951-2.647-5.044-2.647
		c-0.104,0-0.21,0.002-0.313,0.008c-2.035,0.103-3.752,1.279-4.592,3.147c-0.852,1.894-0.57,4.065,0.734,5.668l3.962,4.869H9.202z
		 M41.195,288.042l-7.56,9.288l-7.559-9.288c-0.798-0.981-0.969-2.312-0.445-3.475c0.507-1.127,1.537-1.837,2.755-1.897
		c0.067-0.004,0.136-0.006,0.206-0.006c2.193,0,3.979,1.773,3.979,3.953c0,0.584,0.477,1.058,1.064,1.058
		c0.589,0,1.066-0.474,1.066-1.058c0-2.18,1.784-3.953,3.979-3.953c0.068,0,0.137,0.002,0.205,0.006
		c1.219,0.062,2.248,0.771,2.756,1.897C42.164,285.731,41.993,287.062,41.195,288.042z"/>
</g>
</svg>
